<svg width="70" height="70" viewBox="0 0 70 70" fill="none" xmlns="http://www.w3.org/2000/svg">
<path d="M50.0204 51.7481C50.7293 51.2881 50.9205 50.358 50.4479 49.6679C49.9752 48.9765 49.0178 48.792 48.3103 49.252L46.8789 50.1807C48.1402 47.7051 50.7639 46 53.7895 46C56.3544 46 58.7432 47.2364 60.1823 49.3077C60.6563 49.9932 61.6183 50.1763 62.3212 49.7106C63.0271 49.2476 63.2123 48.3146 62.7352 47.629C60.7241 44.7299 57.3795 43 53.7896 43C47.8408 42.9998 43 47.7109 43 53.5001C43 54.0539 43.3131 54.5621 43.8143 54.8228C44.0416 54.9415 44.2915 55 44.5413 55C44.8408 55 45.1388 54.915 45.3963 54.748L50.0204 51.7481Z" fill="#7EA1F1"/>
<path d="M64.1449 52.1917C63.6186 51.9093 62.977 51.9411 62.4839 52.2727L57.6286 55.5228C56.8842 56.0211 56.6834 57.0287 57.1798 57.7763C57.6728 58.5221 58.6766 58.7205 59.4241 58.2269L60.9272 57.2208C59.6027 59.9027 56.848 61.7499 53.671 61.7499C50.978 61.7499 48.4697 60.4106 46.9586 58.1666C46.4592 57.4223 45.4493 57.227 44.7128 57.7301C43.9716 58.2316 43.777 59.2425 44.2781 59.9851C46.3897 63.1258 49.9016 65 53.6709 65C59.9171 65 65 59.8963 65 53.6246C65 53.025 64.6713 52.4743 64.1449 52.1917Z" fill="#7EA1F1"/>
<path fill-rule="evenodd" clip-rule="evenodd" d="M29.8035 0C30.6126 0.384856 31.4006 0.812368 32.1642 1.28073C40.9543 6.32925 49.7444 11.3794 58.5345 16.4312C58.8746 16.6124 59.1523 16.8916 59.3315 17.2324C59.5108 17.5732 59.5834 17.96 59.54 18.3425C59.5293 24.2162 59.5304 30.0892 59.5315 35.9614V35.9617V35.9619L59.5319 38.6534C65.6498 40.9664 70 46.8782 70 53.806C70 62.7497 62.7497 70 53.806 70C47.953 70 42.8253 66.8949 39.9802 62.2422C36.8601 64.0348 33.7399 65.8271 30.6196 67.619C30.393 67.7915 30.1199 67.8922 29.8355 67.9082C29.5511 67.9242 29.2684 67.8547 29.0239 67.7088C19.6655 62.3498 10.316 56.9811 0.975408 51.6026C0.671843 51.4593 0.417581 51.2294 0.244692 50.9419C0.0718042 50.6544 -0.0119666 50.3222 0.00394594 49.9872V18.0587C-0.0189591 17.7252 0.0582319 17.3924 0.225653 17.103C0.393074 16.8135 0.643121 16.5804 0.943835 16.4336C9.72261 11.3915 18.5014 6.34623 27.2802 1.29771C27.4542 1.1984 27.6274 1.09777 27.8007 0.997159C28.4061 0.645588 29.0112 0.294202 29.6457 0H29.8035ZM56.3971 35.9702L56.3975 37.8182C55.5537 37.6825 54.6881 37.6119 53.806 37.6119C52.1704 37.6119 50.5914 37.8544 49.1031 38.3054C49.1063 32.5358 49.1038 26.7665 49.0956 20.9976L49.0955 20.8655L49.0842 20.7339C48.9424 19.0835 48.1971 17.536 46.9798 16.4013C45.7611 15.2652 44.1579 14.6269 42.4847 14.6269C40.8116 14.6269 39.2084 15.2652 37.9896 16.4013C36.7724 17.536 36.027 19.0835 35.8853 20.7339L35.8738 20.8677V21.0021C35.8738 22.9787 35.8699 24.9613 35.866 26.9471L35.866 26.9511C35.8638 28.034 35.8617 29.1179 35.8602 30.2023C34.5911 28.664 33.3235 27.1243 32.0546 25.5829C30.0482 23.1457 28.0386 20.7045 26.0144 18.2588C25.0017 16.9563 23.6647 15.9415 22.1336 15.3231C20.6016 14.7042 18.9341 14.5061 17.3005 14.75C15.7409 14.9435 14.3076 15.6894 13.2496 16.8438C12.1769 18.0142 11.5593 19.5276 11.4959 21.1077L11.4934 21.1704V45.5691C11.4796 46.4141 11.6287 47.2547 11.9335 48.0441C12.2433 48.8463 12.7085 49.5812 13.3046 50.2044L13.3261 50.2269L13.3481 50.2489C14.4456 51.3517 15.8903 52.0463 17.4443 52.2044C18.9987 52.3625 20.555 51.9728 21.852 51.1085L21.8742 51.0938L21.8961 51.0786C22.7845 50.4646 23.5065 49.6426 24.0035 48.6883C24.5005 47.7341 24.759 46.6742 24.7594 45.6002V45.5989C24.7594 43.64 24.7582 41.6833 24.757 39.7276L24.757 39.7128C24.7563 38.7101 24.7557 37.7077 24.7552 36.7054C28.1824 40.869 31.6142 45.0288 35.0506 49.1849L35.13 49.2809L35.2168 49.3704C35.9698 50.1463 36.8477 50.7842 37.8113 51.258C37.6801 52.088 37.6119 52.939 37.6119 53.806C37.6119 55.7778 37.9643 57.6672 38.6096 59.4149C35.654 61.113 32.6982 62.8108 29.7424 64.5083C20.8664 59.4247 11.9983 54.3323 3.13827 49.2312V18.7877C11.7049 13.8673 20.2716 8.9439 28.8382 4.01737C29.0628 3.88913 29.2667 3.77087 29.4563 3.66087C29.5556 3.60327 29.651 3.54794 29.7434 3.49462C30.0072 3.6419 30.2679 3.79457 30.5255 3.95254L30.564 3.97616L30.6032 3.99867C39.2037 8.93832 47.8042 13.8795 56.4048 18.8223C56.395 24.5305 56.3961 30.25 56.3971 35.9654V35.9702ZM53.806 40.7463C52.1471 40.7463 50.5605 41.0556 49.1006 41.6196C47.9709 42.0561 46.9171 42.6451 45.9645 43.3615C44.0347 44.8126 42.5201 46.7862 41.6307 49.0721C41.2512 50.0473 40.9856 51.0793 40.85 52.1518C40.7816 52.6936 40.7463 53.2456 40.7463 53.806C40.7463 55.2083 40.9673 56.559 41.3764 57.8251C41.7031 58.8362 42.1497 59.7933 42.6995 60.6798C45.0024 64.3929 49.1154 66.8657 53.806 66.8657C54.2568 66.8657 54.7022 66.8428 55.1412 66.7982C61.7267 66.1295 66.8657 60.5679 66.8657 53.806C66.8657 48.6473 63.8746 44.1872 59.5321 42.0653C58.5501 41.5854 57.4991 41.2252 56.3978 41.0034C55.5601 40.8348 54.6934 40.7463 53.806 40.7463ZM45.9613 21.0021C45.9701 27.2115 45.9723 33.4214 45.968 39.6318C42.6155 41.4896 39.9917 44.5022 38.6336 48.1326C38.2103 47.8672 37.8182 47.5503 37.4661 47.1876C33.222 42.0547 28.985 36.9161 24.755 31.7716C23.7113 30.5023 22.668 29.2325 21.6251 27.9624C21.622 29.6063 21.6206 31.2502 21.6203 32.8941C21.6198 35.1672 21.6212 37.4403 21.6226 39.7133L21.6226 39.7201L21.6226 39.7292C21.6239 41.6858 21.6251 43.6424 21.6251 45.5989C21.6249 46.1712 21.487 46.7347 21.2237 47.2404C20.9603 47.7461 20.5793 48.1786 20.114 48.5002C19.4188 48.9634 18.5885 49.1702 17.7615 49.0861C16.9346 49.002 16.1609 48.6321 15.5697 48.038C15.2612 47.7155 15.0191 47.3337 14.8573 46.9149C14.6956 46.4961 14.6176 46.0487 14.6277 45.5989V21.2332C14.6617 20.3869 14.9925 19.5811 15.5602 18.9615C16.128 18.342 16.8952 17.9499 17.7227 17.8562C18.8151 17.6856 19.9325 17.8143 20.9597 18.2293C21.9869 18.6442 22.8867 19.3302 23.5663 20.2167C25.5896 22.6613 27.606 25.1107 29.6222 27.5598L29.6231 27.5609C31.6999 30.0836 33.7765 32.6059 35.8599 35.1224C36.9072 36.3874 37.9564 37.651 39.0081 38.9123C38.9984 37.2716 38.994 35.6313 38.9928 33.991C38.991 31.6552 38.9956 29.3196 39.0003 26.9835V26.9825V26.9815V26.9805V26.9795L39.0003 26.9743C39.0042 24.984 39.0081 22.9934 39.0081 21.0021C39.0841 20.1175 39.4832 19.2939 40.1268 18.694C40.7704 18.094 41.6117 17.7612 42.4847 17.7612C43.3577 17.7612 44.199 18.094 44.8426 18.694C45.4862 19.2939 45.8854 20.1175 45.9613 21.0021Z" fill="#7EA1F1"/>
</svg>